# xmcd
#
# Track frame offsets: 
#        150
#        24290
#        44469
#        57787
#        72988
#        93723
#        116175
#        132945
#        156085
#        174406
#        194555
#        214627
#        240352
#        256310
#        272937
#        291785
#        311241
#        328139
#
# Disc length: 4541 seconds
#
# Revision: 2
# Processed by: cddbd v1.5.2PL0 Copyright (c) Steve Scherf et al.
# Submitted via: ExactAudioCopy v0.95b2
#
DISCID=1211bb12
DTITLE=Lou Rawls - All Things In Time - Unmistakably Lou
DYEAR=2005
DGENRE=R&B
TTITLE0=You're The One
TTITLE1=You'll Never Find Another Love Like Mine
TTITLE2=Time
TTITLE3=Groovy People
TTITLE4=Need You Forever
TTITLE5=From Now On
TTITLE6=Pure Imagination
TTITLE7=This Song Will Last Forever
TTITLE8=Let's Fall In Love All Over Again
TTITLE9=See You When I Git There
TTITLE10=Spring Again
TTITLE11=Early Morning Love
TTITLE12=Some Folks Never Learn
TTITLE13=Someday You'll Be Old
TTITLE14=Secret Tears
TTITLE15=We Understand Each Other
TTITLE16=It's Our Anniversary Today
TTITLE17=All The Way
EXTD=
EXTT0=
EXTT1=
EXTT2=
EXTT3=
EXTT4=
EXTT5=
EXTT6=
EXTT7=
EXTT8=
EXTT9=
EXTT10=
EXTT11=
EXTT12=
EXTT13=
EXTT14=
EXTT15=
EXTT16=
EXTT17=
PLAYORDER=
